<?xml version="1.0" encoding="utf-8"?>
<svg xmlns="http://www.w3.org/2000/svg" viewBox="0 0 600 350" width="600" height="350>
  <rect width="600" height="350" fill="#ffffff" rx="8"/>
  <text x="300" y="30" text-anchor="middle" font-family="Inter, Arial, sans-serif" font-size="16" font-weight="bold" fill="#333">Аккумуляторная батарея — устройство и обслуживание</text>
  <rect x="200" y="60" width="200" height="160" rx="15" fill="#e8eaf6" stroke="#283593" stroke-width="2"/>
  <rect x="210" y="70" width="180" height="30" rx="6" fill="#c5cae9" stroke="#283593" stroke-width="2"/>
  <rect x="255" y="40" width="10" height="25" rx="3" fill="#c62828" stroke="none" stroke-width="2"/>
  <text x="260" y="35" text-anchor="middle" font-family="Inter, Arial, sans-serif" font-size="14" font-weight="bold" fill="#c62828">+</text>
  <text x="260" y="25" text-anchor="middle" font-family="Inter, Arial, sans-serif" font-size="10" font-weight="normal" fill="#c62828">Клемма (+)</text>
  <rect x="335" y="40" width="10" height="25" rx="3" fill="#333" stroke="none" stroke-width="2"/>
  <text x="340" y="35" text-anchor="middle" font-family="Inter, Arial, sans-serif" font-size="14" font-weight="bold" fill="#333">−</text>
  <text x="340" y="25" text-anchor="middle" font-family="Inter, Arial, sans-serif" font-size="10" font-weight="normal" fill="#333">Клемма (−)</text>
  <rect x="220" y="115" width="25" height="90" rx="4" fill="#e3f2fd" stroke="#90a4ae" stroke-width="2"/>
  <rect x="250" y="115" width="25" height="90" rx="4" fill="#e3f2fd" stroke="#90a4ae" stroke-width="2"/>
  <rect x="280" y="115" width="25" height="90" rx="4" fill="#e3f2fd" stroke="#90a4ae" stroke-width="2"/>
  <rect x="310" y="115" width="25" height="90" rx="4" fill="#fce4ec" stroke="#90a4ae" stroke-width="2"/>
  <rect x="340" y="115" width="25" height="90" rx="4" fill="#fce4ec" stroke="#90a4ae" stroke-width="2"/>
  <rect x="370" y="115" width="25" height="90" rx="4" fill="#fce4ec" stroke="#90a4ae" stroke-width="2"/>
  <text x="300" y="225" text-anchor="middle" font-family="Inter, Arial, sans-serif" font-size="11" font-weight="bold" fill="#283593">Элементы (банки) 6×2.1 В = 12.6 В</text>
  <rect x="220" y="145" width="22" height="60" rx="2" fill="#bbdefb" stroke="none" stroke-width="2"/>
  <text x="210" y="170" text-anchor="middle" font-family="Inter, Arial, sans-serif" font-size="8" font-weight="normal" fill="#1565c0">Электролит
(H₂SO₄)</text>
  <rect x="225" y="155" width="2" height="40" rx="6" fill="#999" stroke="#1565c0" stroke-width="2"/>
  <rect x="235" y="155" width="2" height="40" rx="6" fill="#999" stroke="#1565c0" stroke-width="2"/>
  <text x="245" y="175" text-anchor="middle" font-family="Inter, Arial, sans-serif" font-size="8" font-weight="normal" fill="#666">пластины
(Pb/PbO₂)</text>
  <text x="70" y="280" text-anchor="start" font-family="Inter, Arial, sans-serif" font-size="10" font-weight="normal" fill="#333">Напряжение: 12 В</text>
  <text x="70" y="298" text-anchor="start" font-family="Inter, Arial, sans-serif" font-size="10" font-weight="normal" fill="#333">Ёмкость: 45–70 А·ч</text>
  <text x="70" y="316" text-anchor="start" font-family="Inter, Arial, sans-serif" font-size="10" font-weight="normal" fill="#333">Пусковой ток: 300–600 А</text>
  <text x="70" y="334" text-anchor="start" font-family="Inter, Arial, sans-serif" font-size="10" font-weight="normal" fill="#333">Полярность: прямая / обратная</text>
  <text x="70" y="352" text-anchor="start" font-family="Inter, Arial, sans-serif" font-size="10" font-weight="normal" fill="#333">Срок службы: 4–5 лет</text>
</svg>
