<?xml version="1.0" encoding="utf-8"?>
<svg xmlns="http://www.w3.org/2000/svg" viewBox="0 0 650 400" width="650" height="400>
  <rect width="650" height="400" fill="#ffffff" rx="8"/>
  <text x="300" y="30" text-anchor="middle" font-family="Inter, Arial, sans-serif" font-size="16" font-weight="bold" fill="#333">Дисковый тормоз — устройство и принцип работы</text>
<circle cx="300" cy="200" r="100" fill="none" stroke="#666" stroke-width="8"/><circle cx="300" cy="200" r="70" fill="none" stroke="#666" stroke-width="3" stroke-dasharray="8,4"/><circle cx="300" cy="200" r="15" fill="#999" stroke="#666" stroke-width="2"/>  <text x="300" y="90" text-anchor="middle" font-family="Inter, Arial, sans-serif" font-size="11" font-weight="normal" fill="#666">Тормозной диск (ротор)</text>
  <text x="300" y="210" text-anchor="middle" font-family="Inter, Arial, sans-serif" font-size="9" font-weight="normal" fill="#999">ступица</text>
  <rect x="220" y="175" width="30" height="50" rx="6" fill="#e65100" stroke="#bf360c" stroke-width="2"/>
  <text x="235" y="168" text-anchor="middle" font-family="Inter, Arial, sans-serif" font-size="9" font-weight="normal" fill="#bf360c">Колодка</text>
  <rect x="350" y="175" width="30" height="50" rx="6" fill="#e65100" stroke="#bf360c" stroke-width="2"/>
  <rect x="210" y="165" width="180" height="75" rx="6" fill="none" stroke="#1565c0" stroke-width="3"/>
  <text x="300" y="155" text-anchor="middle" font-family="Inter, Arial, sans-serif" font-size="11" font-weight="bold" fill="#1565c0">Суппорт</text>
  <rect x="260" y="178" width="20" height="44" rx="10" fill="#bbdefb" stroke="#1565c0" stroke-width="2"/>
  <text x="240" y="245" text-anchor="middle" font-family="Inter, Arial, sans-serif" font-size="9" font-weight="normal" fill="#1565c0">Поршень</text>
<path d="M 300 178 L 300 130 L 450 130" fill="none" stroke="#c62828" stroke-width="3"/><circle cx="450" cy="130" r="12" fill="#c62828"/>  <text x="480" y="125" text-anchor="middle" font-family="Inter, Arial, sans-serif" font-size="9" font-weight="normal" fill="#c62828">Тормозная жидкость
(гидропривод)</text>
  <line x1="190" y1="280" x2="190" y2="310" stroke="#999" stroke-width="1"/>
  <line x1="410" y1="280" x2="410" y2="310" stroke="#999" stroke-width="1"/>
  <line x1="190" y1="300" x2="410" y2="300" stroke="#999" stroke-width="1"/>
  <text x="300" y="315" text-anchor="middle" font-family="Inter, Arial, sans-serif" font-size="10" font-weight="normal" fill="#999">диаметр диска 259 мм</text>
  <rect x="40" y="340" width="12" height="12" rx="6" fill="#e65100" stroke="#bf360c" stroke-width="2"/>
  <text x="60" y="351" text-anchor="start" font-family="Inter, Arial, sans-serif" font-size="10" font-weight="normal" fill="#333">Колодка (накладка + металл)</text>
  <rect x="40" y="360" width="12" height="12" rx="6" fill="none" stroke="#1565c0" stroke-width="2"/>
  <text x="60" y="371" text-anchor="start" font-family="Inter, Arial, sans-serif" font-size="10" font-weight="normal" fill="#333">Суппорт (алюминиевый корпус)</text>
</svg>
