<?xml version="1.0" encoding="utf-8"?>
<svg xmlns="http://www.w3.org/2000/svg" viewBox="0 0 650 400" width="650" height="400>
  <rect width="650" height="400" fill="#ffffff" rx="8"/>
  <text x="300" y="30" text-anchor="middle" font-family="Inter, Arial, sans-serif" font-size="16" font-weight="bold" fill="#333">Шумоизоляция Symbol — рекомендуемые зоны обработки</text>
<path d="M 100 200 Q 150 120 250 120 L 400 120 L 500 170 L 520 260 L 450 320 L 150 320 L 100 260 Z" fill="#f5f5f5" stroke="#999" stroke-width="2"/><path d="M 130 280 L 440 280 L 420 200 L 150 200 Z" fill="#e3f2fd" stroke="#1565c0" stroke-width="2" opacity="0.6"/>  <text x="285" y="240" text-anchor="middle" font-family="Inter, Arial, sans-serif" font-size="10" font-weight="bold" fill="#1565c0">Зона 1: Пол
(вибро+шумоизоляция)</text>
  <rect x="100" y="170" width="20" height="100" rx="3" fill="#fff3e0" stroke="#e65100" stroke-width="2"/>
  <rect x="480" y="180" width="20" height="90" rx="3" fill="#fff3e0" stroke="#e65100" stroke-width="2"/>
  <text x="510" y="175" text-anchor="middle" font-family="Inter, Arial, sans-serif" font-size="9" font-weight="normal" fill="#e65100">Зона 2: Двери
(вибро+герметизация)</text>
<ellipse cx="490" cy="280" rx="35" ry="30" fill="#e8f5e9" stroke="#2e7d32" stroke-width="2" opacity="0.6"/>  <text x="530" y="280" text-anchor="middle" font-family="Inter, Arial, sans-serif" font-size="9" font-weight="normal" fill="#2e7d32">Зона 3: Багажник
(арки + ниша)</text>
<ellipse cx="250" cy="140" rx="50" ry="15" fill="#fce4ec" stroke="#c62828" stroke-width="2" opacity="0.5"/>  <text x="200" y="130" text-anchor="middle" font-family="Inter, Arial, sans-serif" font-size="9" font-weight="normal" fill="#c62828">Зона 4: Капот
(теплоизол)</text>
<rect x="50" y="340" width="10" height="10" fill="#1565c0" rx="2"/>  <text x="68" y="349" text-anchor="start" font-family="Inter, Arial, sans-serif" font-size="9" font-weight="normal" fill="#1565c0">Вибропласт Silver (2 мм)</text>
<rect x="50" y="340" width="10" height="10" fill="#c62828" rx="2"/>  <text x="68" y="365" text-anchor="start" font-family="Inter, Arial, sans-serif" font-size="9" font-weight="normal" fill="#c62828">Сплэн (4–8 мм)</text>
<rect x="50" y="340" width="10" height="10" fill="#e65100" rx="2"/>  <text x="68" y="381" text-anchor="start" font-family="Inter, Arial, sans-serif" font-size="9" font-weight="normal" fill="#e65100">Бипласт (5–10 мм)</text>
<rect x="50" y="340" width="10" height="10" fill="#2e7d32" rx="2"/>  <text x="68" y="397" text-anchor="start" font-family="Inter, Arial, sans-serif" font-size="9" font-weight="normal" fill="#2e7d32">Вибротон (2.5–4 мм)</text>
</svg>
