<?xml version="1.0" encoding="utf-8"?>
<svg xmlns="http://www.w3.org/2000/svg" viewBox="0 0 500 550" width="500" height="550>
  <rect width="500" height="550" fill="#ffffff" rx="8"/>
  <text x="300" y="30" text-anchor="middle" font-family="Inter, Arial, sans-serif" font-size="16" font-weight="bold" fill="#333">Передняя подвеска — стойка McPherson (разрез)</text>
  <rect x="200" y="30" width="100" height="25" rx="6" fill="#78909c" stroke="#546e7a" stroke-width="2"/>
  <text x="250" y="18" text-anchor="middle" font-family="Inter, Arial, sans-serif" font-size="10" font-weight="normal" fill="#546e7a">Верхняя опора</text>
<path d="M 215 55 L 200 80 L 300 100 L 200 140 L 300 160 L 200 200 L 300 220 L 215 250" fill="none" stroke="#e65100" stroke-width="4"/>  <text x="310" y="140" text-anchor="middle" font-family="Inter, Arial, sans-serif" font-size="11" font-weight="normal" fill="#e65100">Пружина</text>
  <rect x="240" y="55" width="20" height="220" rx="10" fill="#bbdefb" stroke="#1565c0" stroke-width="2"/>
  <text x="270" y="130" text-anchor="middle" font-family="Inter, Arial, sans-serif" font-size="10" font-weight="normal" fill="#1565c0">Амортизатор</text>
  <rect x="247" y="30" width="6" height="30" rx="6" fill="#90a4ae" stroke="#546e7a" stroke-width="2"/>
  <text x="260" y="45" text-anchor="middle" font-family="Inter, Arial, sans-serif" font-size="9" font-weight="normal" fill="#546e7a">Шток</text>
  <rect x="230" y="270" width="40" height="50" rx="6" fill="#ffe0b2" stroke="#e65100" stroke-width="2"/>
  <text x="280" y="285" text-anchor="middle" font-family="Inter, Arial, sans-serif" font-size="10" font-weight="normal" fill="#e65100">Поворотный кулак</text>
<path d="M 230 320 L 80 370 L 80 380" fill="none" stroke="#1565c0" stroke-width="6" stroke-linecap="round"/>  <text x="130" y="365" text-anchor="middle" font-family="Inter, Arial, sans-serif" font-size="10" font-weight="normal" fill="#1565c0">Нижний рычаг</text>
<circle cx="230" cy="320" r="8" fill="#c62828" stroke="#b71c1c" stroke-width="2"/>  <text x="200" y="345" text-anchor="middle" font-family="Inter, Arial, sans-serif" font-size="9" font-weight="normal" fill="#c62828">Шаровая опора</text>
<line x1="300" y1="250" x2="350" y2="200" stroke="#6a1b9a" stroke-width="4" stroke-linecap="round"/>  <text x="360" y="215" text-anchor="middle" font-family="Inter, Arial, sans-serif" font-size="9" font-weight="normal" fill="#6a1b9a">Стойка
стабилизатора</text>
<line x1="350" y1="200" x2="450" y2="180" stroke="#6a1b9a" stroke-width="6" stroke-linecap="round"/>  <text x="440" y="175" text-anchor="middle" font-family="Inter, Arial, sans-serif" font-size="9" font-weight="normal" fill="#6a1b9a">Стаб-р поперечной
устойчивости</text>
<line x1="100" y1="260" x2="250" y2="290" stroke="#333" stroke-width="5" stroke-linecap="round"/>  <text x="100" y="250" text-anchor="middle" font-family="Inter, Arial, sans-serif" font-size="9" font-weight="normal" fill="#333">Приводной вал (ШРУС)</text>
  <rect x="230" y="295" width="15" height="15" rx="6" fill="#666" stroke="#444" stroke-width="2"/>
  <text x="250" y="318" text-anchor="middle" font-family="Inter, Arial, sans-serif" font-size="9" font-weight="normal" fill="#666">Ступица</text>
</svg>
